<?xml version="1.0" standalone="no"?>
<!DOCTYPE svg PUBLIC "-//W3C//DTD SVG 20010904//EN"
 "http://www.w3.org/TR/2001/REC-SVG-20010904/DTD/svg10.dtd">
<svg version="1.0" xmlns="http://www.w3.org/2000/svg"
 width="500.000000pt" height="500.000000pt" viewBox="0 0 500.000000 500.000000"
 preserveAspectRatio="xMidYMid meet">

<g transform="translate(0.000000,500.000000) scale(0.100000,-0.100000)"
fill="#000000" stroke="none">
<path d="M0 2500 l0 -2500 2500 0 2500 0 0 2500 0 2500 -2500 0 -2500 0 0
-2500z m2563 433 c185 -87 278 -303 222 -518 -67 -257 -336 -381 -584 -269
-77 34 -151 111 -194 201 -31 65 -32 74 -32 188 0 102 4 129 23 178 46 113
132 196 248 237 47 16 78 20 154 17 82 -2 104 -7 163 -34z m-685 -305 c-3
-368 -5 -377 -71 -447 -94 -99 -295 -102 -389 -7 l-27 28 25 38 26 39 44 -34
c49 -38 96 -51 152 -41 50 8 83 34 110 86 21 43 22 52 22 357 l0 313 56 0 55
0 -3 -332z m1554 -63 c86 -214 162 -402 167 -417 l10 -28 -58 0 -59 0 -35 88
-35 87 -213 3 -214 2 -35 -90 -35 -90 -57 0 c-32 0 -58 3 -58 7 0 4 75 194
167 421 l166 413 66 -3 65 -3 158 -390z m441 -323 c24 -21 22 -77 -3 -102 -26
-26 -81 -26 -104 -1 -21 23 -24 74 -5 97 29 35 75 38 112 6z"/>
<path d="M2323 2870 c-93 -19 -174 -86 -216 -178 -17 -38 -21 -67 -21 -152 -1
-93 2 -111 25 -160 35 -74 67 -110 131 -145 47 -27 62 -30 138 -30 102 0 154
20 217 84 63 63 87 134 87 251 0 83 -3 103 -28 156 -15 34 -44 78 -64 97 -66
64 -176 96 -269 77z"/>
<path d="M3121 2638 c-46 -117 -85 -219 -88 -225 -4 -10 34 -13 172 -13 164 0
177 1 172 18 -9 35 -159 417 -166 425 -4 4 -45 -88 -90 -205z"/>
</g>
</svg>
