<?xml version="1.0" standalone="no"?>
<!DOCTYPE svg PUBLIC "-//W3C//DTD SVG 20010904//EN"
 "http://www.w3.org/TR/2001/REC-SVG-20010904/DTD/svg10.dtd">
<svg version="1.0" xmlns="http://www.w3.org/2000/svg"
 width="500.000000pt" height="500.000000pt" viewBox="0 0 500.000000 500.000000"
 preserveAspectRatio="xMidYMid meet">

<g transform="translate(0.000000,500.000000) scale(0.100000,-0.100000)"
fill="#000000" stroke="none">
<path d="M2270 2955 c-221 -62 -342 -289 -285 -533 30 -127 103 -221 214 -274
56 -27 80 -33 158 -36 202 -9 342 80 414 266 29 74 32 220 6 303 -35 116 -129
219 -237 260 -73 28 -197 34 -270 14z m243 -104 c58 -26 115 -85 146 -151 23
-48 26 -68 26 -160 0 -99 -2 -110 -33 -172 -56 -114 -142 -168 -267 -168 -122
0 -220 60 -271 168 -22 45 -29 75 -32 147 -5 105 5 150 50 224 59 97 156 145
276 136 34 -2 82 -13 105 -24z"/>
<path d="M1777 2953 c-4 -3 -7 -146 -7 -317 0 -289 -1 -312 -20 -351 -25 -52
-80 -85 -143 -85 -57 0 -86 11 -128 48 l-34 29 -27 -38 -27 -38 33 -29 c55
-48 114 -65 203 -60 119 7 180 45 222 138 19 42 21 64 21 378 l0 332 -43 0
c-24 0 -47 -3 -50 -7z"/>
<path d="M2981 2553 c-90 -224 -166 -414 -168 -421 -4 -10 8 -12 52 -10 l57 3
36 90 37 90 214 0 214 0 35 -92 35 -93 58 0 57 0 -168 418 -169 417 -63 3 -64
3 -163 -408z m320 74 l86 -222 -175 -3 c-96 -1 -177 -1 -179 2 -2 2 35 105 84
229 48 124 90 223 93 221 3 -3 44 -105 91 -227z"/>
<path d="M3766 2224 c-19 -19 -21 -74 -3 -97 21 -28 68 -32 100 -7 31 25 36
63 11 98 -18 27 -84 31 -108 6z"/>
</g>
</svg>
